<svg width="36" height="36" viewBox="0 0 36 36" fill="none" xmlns="http://www.w3.org/2000/svg">
<g filter="url(#filter0_d_3_306)">
<path d="M28.6911 27.1453L24.6125 23.0966C26.1957 21.1212 26.9624 18.6137 26.7549 16.0899C26.5475 13.5661 25.3817 11.2177 23.4973 9.52772C21.6128 7.83769 19.153 6.93444 16.6235 7.00371C14.094 7.07298 11.6872 8.10949 9.89792 9.90013C8.10865 11.6908 7.07292 14.0994 7.00371 16.6308C6.93449 19.1622 7.83705 21.6239 9.5258 23.5098C11.2145 25.3957 13.5611 26.5623 16.083 26.7699C18.6049 26.9775 21.1105 26.2103 23.0844 24.6259L27.13 28.6746C27.2322 28.7777 27.3538 28.8595 27.4878 28.9154C27.6217 28.9712 27.7654 29 27.9106 29C28.0557 29 28.1994 28.9712 28.3333 28.9154C28.4673 28.8595 28.5889 28.7777 28.6911 28.6746C28.8892 28.4694 29 28.1953 29 27.9099C29 27.6246 28.8892 27.3505 28.6911 27.1453ZM16.9171 24.6259C15.3951 24.6259 13.9073 24.1742 12.6417 23.328C11.3762 22.4818 10.3899 21.279 9.80745 19.8718C9.225 18.4646 9.07261 16.9161 9.36953 15.4222C9.66646 13.9283 10.3994 12.556 11.4756 11.479C12.5518 10.402 13.923 9.66849 15.4158 9.37134C16.9086 9.07418 18.4559 9.22669 19.862 9.80958C21.2682 10.3925 22.47 11.3796 23.3156 12.646C24.1612 13.9125 24.6125 15.4015 24.6125 16.9246C24.6125 18.9671 23.8018 20.926 22.3586 22.3702C20.9154 23.8145 18.958 24.6259 16.9171 24.6259Z" fill="white"/>
<path d="M28.8709 26.9716L28.871 26.9716L28.8672 26.9679L24.9464 23.0758C26.4754 21.0788 27.2106 18.5821 27.0041 16.0694C26.7914 13.482 25.5962 11.0743 23.6642 9.3416C21.7321 7.60887 19.2101 6.68278 16.6166 6.7538C14.0232 6.82482 11.5556 7.88755 9.72108 9.72342C7.88662 11.5593 6.82476 14.0287 6.7538 16.624C6.68284 19.2192 7.60816 21.7431 9.33956 23.6766C11.071 25.6101 13.4768 26.8063 16.0625 27.0191C18.5735 27.2258 21.0687 26.4899 23.0643 24.9594L26.9525 28.8505C26.9526 28.8507 26.9527 28.8508 26.9529 28.851C27.0782 28.9773 27.2273 29.0777 27.3916 29.1461C27.556 29.2147 27.7324 29.25 27.9106 29.25C28.0887 29.25 28.2651 29.2147 28.4295 29.1461C28.594 29.0776 28.7432 28.9771 28.8687 28.8505L28.8709 28.8483C29.1141 28.5965 29.25 28.26 29.25 27.9099C29.25 27.5598 29.1141 27.2234 28.8709 26.9716ZM16.9171 24.3759C15.4446 24.3759 14.0051 23.9389 12.7807 23.1202C11.5563 22.3014 10.602 21.1377 10.0384 19.7762C9.47489 18.4146 9.32744 16.9164 9.61474 15.4709C9.90204 14.0255 10.6112 12.6978 11.6525 11.6557C12.6937 10.6137 14.0204 9.90402 15.4646 9.61652C16.9088 9.32903 18.4058 9.47658 19.7663 10.0405C21.1267 10.6045 22.2896 11.5595 23.1077 12.7849C23.9258 14.0102 24.3625 15.4509 24.3625 16.9246C24.3625 18.9009 23.578 20.7962 22.1817 22.1935C20.7854 23.5909 18.8917 24.3759 16.9171 24.3759Z" stroke="white" stroke-width="0.5"/>
</g>
<defs>
<filter id="filter0_d_3_306" x="2.5" y="4.5" width="31" height="31" filterUnits="userSpaceOnUse" color-interpolation-filters="sRGB">
<feFlood flood-opacity="0" result="BackgroundImageFix"/>
<feColorMatrix in="SourceAlpha" type="matrix" values="0 0 0 0 0 0 0 0 0 0 0 0 0 0 0 0 0 0 127 0" result="hardAlpha"/>
<feOffset dy="2"/>
<feGaussianBlur stdDeviation="2"/>
<feComposite in2="hardAlpha" operator="out"/>
<feColorMatrix type="matrix" values="0 0 0 0 0 0 0 0 0 0 0 0 0 0 0 0 0 0 0.6 0"/>
<feBlend mode="normal" in2="BackgroundImageFix" result="effect1_dropShadow_3_306"/>
<feBlend mode="normal" in="SourceGraphic" in2="effect1_dropShadow_3_306" result="shape"/>
</filter>
</defs>
</svg>
