<?xml version="1.0" encoding="utf-8"?>
<!-- Generator: Adobe Illustrator 24.0.0, SVG Export Plug-In . SVG Version: 6.00 Build 0)  -->
<svg version="1.1" id="Layer_1" xmlns="http://www.w3.org/2000/svg" xmlns:xlink="http://www.w3.org/1999/xlink" x="0px" y="0px"
	 viewBox="0 0 1200 843" style="enable-background:new 0 0 1200 843;" xml:space="preserve">
<style type="text/css">
	.st0{fill:#0EB4CE;}
</style>
<path class="st0" d="M678.2,569.3c-2.6,0-4.2,0-5.8,0c-27.5,0-55,0-82.4,0c-56.6-0.1-105.8-42.2-115-98.1
	c-3.4-20.9-1.7-41.9-1.8-62.8c-0.1-83.9,0.8-167.8-0.5-251.7c-0.3-20.5,1.5-40.3,11.4-58.4c18.8-34.5,48.4-53.4,87.1-58.5
	c5.6-0.7,11.3-0.7,16.9-0.7C717,39,845.9,39,974.8,38.9c18.8,0,37.6-0.2,56.5,0.1c38.2,0.8,69,15.6,89.8,48.6
	c9.7,15.4,14.4,32.5,14.5,50.7c0.2,52.4,0.1,104.9,0.1,157.3c0,54.3,0.1,108.6,0,162.8c-0.1,46.6-33.4,92.1-77.5,106.5
	c-10.2,3.3-20.7,4.6-31.5,4.4c-10.6-0.2-21.3,0-31.8,0c-1.4,1.6-0.9,3.4-0.9,5c0.3,21.6-0.5,43.3,0.4,64.9
	c0.4,10.1-1.7,19.8-8.6,27.6c-9.7,10.9-24.9,13.1-37.6,5.2c-13.8-8.6-26.5-18.9-39.7-28.6c-31.7-23.2-63.3-46.5-94.9-69.7
	c-3.4-2.5-7.1-4.4-11.4-4.4c-28.1,0-56.3,0-84.4,0c-0.1,0.5-0.3,0.9-0.2,1.1c13.6,14.1,11.4,30.8,7,47.4
	c-11.1,41.6-51.7,76.9-94.5,82.3c-16,2-32.3,1-48.4,1c-58.1,0.1-116.2,0.2-174.4-0.2c-9.7-0.1-17.5,2.4-25.3,8
	c-40.5,28.9-81.2,57.4-121.9,86.1c-6.3,4.4-12.7,8.7-20.7,9.3c-18.2,1.3-32.7-11.8-33-30.3c-0.3-22.5-0.1-45-0.1-67.4
	c0-1.8,0.4-3.6-0.7-5.9c-7.9,0-16-0.6-24.1,0.1c-40.9,3.3-72.5-13.2-96.1-45.7c-14.7-20.2-21.1-43.1-21-68.3
	c0.4-96.1,0.3-192.1,0-288.2c-0.1-26.2,5.9-50.1,23-70.4c16.4-19.4,37.4-30.5,62.4-34.3c7.5-1.2,14.9-0.9,22.4-1
	c76.9-1,153.9-0.4,230.8-0.5c10.3,0,20.6,0.2,30.9,0.7c12.2,0.6,23.2,9.1,26.7,20.1c3.9,12.2,0.3,24.6-9.5,32.3
	c-6.8,5.4-15,7.2-23.4,7.2c-81.8,0.1-163.5,0-245.3,0c-6.5,0-13-0.1-19.5,0.3c-16.6,0.9-32.1,12.4-35.9,26.4
	c-1,3.7-1.4,7.5-1.4,11.3c0,101.2-0.1,202.5,0,303.7c0,22.6,20.4,45.6,42.6,46.7c12.7,0.6,25.6-0.7,38.4-0.5
	c10.6,0.2,21.3-0.1,31.9,0.8c17.1,1.4,28.2,12.6,28.6,29.9c0.3,13,0.1,26,0.1,39c0,1.6,0,3.2,0,5.9c9.1-6.3,17.4-11.9,25.6-17.8
	c19.5-13.9,39-27.8,58.4-41.9c14.8-10.7,31.3-15.9,49.5-15.9c62.9,0,125.9,0.1,188.8,0.3c10.8,0,21.6,1.5,32.4-0.4
	c20.5-3.6,40.2-22.6,44.4-42.6c0.7-3.2,0.6-6.6,1.1-9.9c0.6-3.5,1.9-6.7,3.5-9.8C672.7,574.9,675.3,572.6,678.2,569.3z M933,585.3
	c0-3.2,0-5,0-6.9c0.1-13.8-0.2-27.6,0.7-41.4c1.1-17.7,10.6-27.5,28.1-28.8c19.6-1.4,39.3-0.3,58.9-0.7c4-0.1,8.1,0.1,11.9-0.7
	c25.8-4.8,42-24.2,42-50.5c0.1-102.9,0.1-205.8,0.1-308.7c0-2,0.1-4-0.1-6c-1.1-13.2-4.4-25.4-16-33.4c-8.5-5.9-18.3-7.6-28.5-7.6
	c-39.8,0-79.6,0-119.4,0c-108.6,0-217.2,0-325.7,0c-6.9,0-13.6,0.6-20.2,2.7c-19.4,6.1-30.7,23.1-30.7,46.4c0,100.1,0,200.1,0,300.2
	c0,4.7,0.5,9.3,1.6,13.8c7.1,27.4,28.4,43.8,56.8,43.8c72.3,0,144.5,0,216.8-0.1c11.7,0,22.2,3.3,31.7,10.3
	c20.2,15,40.4,29.8,60.7,44.7C911.7,569.9,921.8,577.2,933,585.3z"/>
<path class="st0" d="M727.3,287.2c6.8-48.1,47.2-71.7,81.3-69.5c32.8,2.1,65.6,25.2,71.8,67.3c0.4-0.4,1-0.6,1.1-1
	c5.1-28,22.3-46.7,47.5-57.5c35.8-15.4,70.4-11.9,101.8,11.5c18.8,14,29,33.5,28.5,57.2c-0.5,25.7-13.2,45.3-34.3,59.3
	c-34.6,23.1-82.2,21.3-115.1-4c-14.3-11-24.1-25.1-27.9-43c-0.2-1.1,0.1-2.4-1.7-3.4c-3.3,19.8-12,36.6-27.7,49.3
	c-15.9,12.9-34.1,18.4-54.4,16.9c-18.4-1.4-34.3-8.8-47.6-21.7c-13.2-12.9-20.5-28.8-23.1-47.1c-2.4,17.5-10.3,32-23,44
	c-12.6,11.8-27.5,19.3-44.3,22.7c-29.1,6-56.5,1.3-80.5-16.7c-42.7-32-40.7-88.2,3.8-117.8c34.5-22.9,82.3-21.5,115.1,3.9
	C714.8,250.1,724.9,266.2,727.3,287.2z M970.7,313.4c3.8-0.2,8-0.7,11.8-2.5c7.2-3.3,12.9-8.4,12.9-16.8c0-7.8-5.1-13.1-12-16.3
	c-9-4.2-18.2-4-26.9,0.3c-6.4,3.1-11.7,8-11.7,16c0,8,5.3,12.5,11.7,16C960.7,312.5,965.5,313.3,970.7,313.4z M638.1,313.4
	c6.3-0.4,12.1-1.4,17.3-5c10.6-7.4,11.1-19.6,1.2-27.7c-9.9-8.1-28.1-7.5-37.4,1.3c-8.2,7.7-8.2,16.5,0,24.2
	C624.5,311.2,631.2,312.9,638.1,313.4z M823,293.8c-0.1-10.7-8.5-19.2-19-18.9c-10.2,0.3-19.1,9.3-19,19.3
	c0.1,10.1,9.1,19.1,19.2,19.1C815,313.4,823.1,305,823,293.8z"/>
</svg>
