<svg width="38" height="30" viewBox="0 0 38 30" fill="none" xmlns="http://www.w3.org/2000/svg">
<path d="M33.391 4.56801C34.5556 4.74201 35.6938 4.90654 36.8303 5.08571C37.638 5.2132 38.0922 5.78258 37.9838 6.60436C37.6986 8.75011 37.3852 10.8924 37.0796 13.0347C36.7841 15.1064 36.4793 17.1772 36.189 19.2497C36.0814 20.0215 36.3811 20.7486 36.4819 21.4971C36.5425 21.9511 36.6501 22.399 36.7175 22.8521C36.8217 23.549 36.4588 24.1623 35.7886 24.3397C35.4957 24.4173 35.4223 24.5482 35.3898 24.8273C35.3062 25.5672 35.1841 26.3037 35.0722 27.0411C34.9458 27.8698 34.3072 28.3366 33.4858 28.216C30.1106 27.7199 26.7353 27.228 23.3601 26.7293C23.0954 26.6905 22.8495 26.7654 22.6011 26.812C17.7248 27.7164 12.8502 28.6269 7.97484 29.5348C7.19272 29.6804 6.41061 29.8277 5.62679 29.9681C4.76697 30.1223 4.13684 29.702 3.97547 28.8328C3.26337 24.9866 2.56237 21.1388 1.85966 17.2909C1.24746 13.9366 0.638674 10.5814 0.0281805 7.22629C-0.117826 6.42605 0.319339 5.76277 1.11426 5.61202C2.81767 5.289 4.52192 4.972 6.22874 4.66621C6.50795 4.61625 6.62834 4.51632 6.65908 4.20966C6.72909 3.51193 6.84351 2.81678 6.96133 2.12507C7.10307 1.28865 7.65123 0.854509 8.51105 0.963907C10.0053 1.15342 11.4944 1.38858 12.9852 1.60393C14.7295 1.85632 16.4722 2.11905 18.2183 2.35507C18.8049 2.43432 19.3684 2.2138 19.9379 2.10871C23.6692 1.42217 27.3979 0.720131 31.1292 0.0301486C31.9796 -0.127488 32.6123 0.331639 32.7694 1.18701C32.9735 2.29994 33.1784 3.41201 33.391 4.56801ZM35.2105 7.51917C26.5859 6.26324 17.9997 5.01335 9.37513 3.75743C8.51873 9.74675 7.66917 15.6844 6.81618 21.6539C15.4468 22.9098 24.0347 24.1606 32.6524 25.4148C33.5054 19.4418 34.355 13.5016 35.2105 7.51917ZM2.8373 7.98691C3.4367 11.2766 4.02926 14.5258 4.62182 17.775C4.65085 17.7793 4.67903 17.7845 4.70806 17.7888C5.20414 14.332 5.70022 10.8752 6.20398 7.36325C5.07521 7.57257 3.99425 7.77242 2.8373 7.98691ZM5.79072 24.183C5.98198 25.2227 6.15702 26.1728 6.33547 27.1376C9.16423 26.6121 11.9409 26.097 14.7167 25.5819C14.7176 25.5517 14.7184 25.5224 14.7193 25.4923C11.7633 25.0581 8.80648 24.6249 5.79072 24.183ZM26.7302 3.55242C26.7396 3.57223 26.749 3.59118 26.7584 3.61099C28.0426 3.79619 29.3267 3.98139 30.6502 4.17176C30.5571 3.6911 30.4794 3.28883 30.3974 2.86588C29.1483 3.09932 27.9392 3.32587 26.7302 3.55242Z" fill="white"/>
<path d="M24.2046 11.3774C25.1925 13.3397 26.1803 15.3028 27.1563 17.2427C27.9811 16.4769 28.7931 15.7231 29.6162 14.9582C30.1234 17.7276 30.6416 20.5608 31.1744 23.4749C23.7128 22.3887 16.2972 21.3102 8.83551 20.224C9.31024 18.9861 10.112 18.1066 11.2911 17.5958C12.5719 17.0402 13.9167 17.0118 15.2726 17.1824C16.2332 17.303 17.1775 17.5157 18.086 17.8543C18.3618 17.9568 18.512 17.9059 18.6982 17.688C20.4178 15.6784 22.1494 13.6782 23.8793 11.6771C23.9706 11.5703 24.0372 11.4342 24.2046 11.3774Z" fill="white"/>
<path d="M15.1667 7.98777C16.5593 7.97829 17.6855 9.10845 17.6941 10.5229C17.7017 11.9166 16.5542 13.0821 15.1761 13.0795C13.7946 13.0769 12.6411 11.9183 12.6419 10.5323C12.6428 9.13171 13.769 7.99724 15.1667 7.98777Z" fill="white"/>
</svg>
